<svg xmlns="http://www.w3.org/2000/svg" viewBox="0 -19.9 190 99.8"><clipPath id="u62"><rect x="0" y="-79.8" width="190" height="159.6"/></clipPath><g clip-path="url(#u62)"><g fill="#d5e3ee"><circle cx="29.9" cy="67" r="21.9"/><circle cx="51.6" cy="61.7" r="32.4"/><circle cx="73.3" cy="53.5" r="36.9"/><circle cx="95" cy="45.5" r="47.9"/><circle cx="116.7" cy="54.7" r="37.3"/><circle cx="138.4" cy="60.5" r="31.9"/><circle cx="160.1" cy="66" r="21.8"/><circle cx="98.3" cy="43.4" r="31.7"/><circle cx="120.2" cy="47.2" r="28.3"/><circle cx="71.9" cy="48.6" r="27.1"/></g><g fill="#eef4f9"><circle cx="27.9" cy="63" r="20.6"/><circle cx="49.6" cy="57.7" r="30.5"/><circle cx="71.3" cy="49.5" r="34.7"/><circle cx="93" cy="41.5" r="45"/><circle cx="114.7" cy="50.7" r="35.1"/><circle cx="136.4" cy="56.5" r="30"/><circle cx="158.1" cy="62" r="20.5"/><circle cx="96.3" cy="39.4" r="29.8"/><circle cx="118.2" cy="43.2" r="26.6"/><circle cx="69.9" cy="44.6" r="25.5"/></g><g fill="#ffffff"><circle cx="24.9" cy="59" r="17.5"/><circle cx="46.6" cy="53.7" r="25.9"/><circle cx="68.3" cy="45.5" r="29.5"/><circle cx="90" cy="37.5" r="38.3"/><circle cx="111.7" cy="46.7" r="29.8"/><circle cx="133.4" cy="52.5" r="25.5"/><circle cx="155.1" cy="58" r="17.4"/><circle cx="93.3" cy="35.4" r="25.3"/><circle cx="115.2" cy="39.2" r="22.7"/><circle cx="66.9" cy="40.6" r="21.7"/></g></g><rect x="19" y="76.8" width="152" height="3" rx="1.5" fill="#d5e3ee"/></svg>
